<svg xmlns="http://www.w3.org/2000/svg" xmlns:xlink="http://www.w3.org/1999/xlink" version="1.1" x="0px" y="0px" viewBox="0 0 100 100" style="enable-background:new 0 0 100 100;" xml:space="preserve"><rect style="" width="100" height="100" fill="none"></rect><path d="M94.981,49.859c-0.004-0.03,0.008-0.062,0-0.092c-1.217-5.092-3.275-9.802-6.014-14.005  c-0.055-0.223-0.176-0.432-0.378-0.577c-0.007-0.005-0.016-0.01-0.022-0.015C80.237,22.822,65.973,15,50.009,15  C34.044,15,19.78,22.822,11.45,35.171c-0.007,0.005-0.016,0.01-0.022,0.015c-0.202,0.145-0.323,0.354-0.379,0.577  c-2.737,4.203-4.797,8.913-6.013,14.005c-0.037,0.153-0.037,0.312,0,0.465C9.225,67.771,23.404,80.77,40.959,84.135  c0.08,0.016,0.16,0.031,0.24,0.046c0.596,0.11,1.194,0.21,1.797,0.299c0.158,0.023,0.316,0.048,0.476,0.069  c0.532,0.072,1.068,0.135,1.606,0.189c0.199,0.021,0.397,0.045,0.597,0.063c0.526,0.047,1.056,0.082,1.587,0.112  c0.195,0.011,0.39,0.027,0.585,0.036C48.564,84.98,49.284,85,50.009,85c0.724,0,1.444-0.02,2.161-0.051  c0.196-0.009,0.391-0.025,0.586-0.036c0.531-0.03,1.061-0.065,1.587-0.112c0.199-0.018,0.397-0.041,0.596-0.063  c0.538-0.055,1.074-0.117,1.607-0.189c0.158-0.021,0.317-0.046,0.476-0.069c0.603-0.089,1.201-0.188,1.796-0.299  c0.08-0.015,0.161-0.03,0.241-0.046c17.555-3.365,31.734-16.363,35.923-33.902c0.008-0.03-0.004-0.062,0-0.092  C94.995,50.046,94.995,49.954,94.981,49.859z M56.173,82.582c-0.509,0.068-1.021,0.125-1.533,0.178  c-0.18,0.018-0.358,0.039-0.538,0.055c-0.502,0.045-1.008,0.077-1.514,0.105c-0.18,0.01-0.357,0.025-0.538,0.033  c-0.346,0.016-0.694,0.017-1.041,0.023V76h6v6.453c-0.135,0.021-0.269,0.047-0.404,0.066C56.461,82.54,56.317,82.563,56.173,82.582z   M47.429,82.92c-0.506-0.028-1.011-0.061-1.514-0.105c-0.18-0.016-0.357-0.037-0.537-0.055c-0.513-0.053-1.024-0.109-1.533-0.178  c-0.145-0.02-0.288-0.042-0.433-0.063c-0.135-0.02-0.269-0.045-0.403-0.066V76h6v6.977c-0.348-0.007-0.695-0.008-1.041-0.023  C47.787,82.945,47.608,82.93,47.429,82.92z M41.009,76v6.098c-2.044-0.41-4.048-0.961-6-1.646V76H41.009z M33.009,79.693  C30.521,78.682,28.13,77.449,25.86,76h7.148V79.693z M65.009,76v4.451c-1.952,0.686-3.956,1.236-6,1.646V76H65.009z M74.157,76  c-2.27,1.449-4.661,2.682-7.148,3.693V76H74.157z M77.032,74.005C77.023,74.004,77.017,74,77.009,74h-54  c-0.009,0-0.015,0.004-0.023,0.005c-1.167-0.883-2.297-1.823-3.382-2.825c4.179-9.754,13.462-14.711,28.289-15.138  c-2.696,4.198-1.778,9.405-0.778,11.405C47.289,67.798,47.643,68,48.01,68c0.149,0,0.303-0.033,0.446-0.105  c0.494-0.247,0.694-0.848,0.447-1.342c-0.783-1.565-1.799-6.868,1.543-10.544c6.747,0.039,12.406,0.964,17.01,2.8  c0.119,0.082,0.247,0.135,0.385,0.158c1.227,0.51,2.378,1.084,3.452,1.727c0.004,0.004,0.005,0.01,0.009,0.014  c0.109,0.109,0.24,0.181,0.377,0.229c3.959,2.471,6.862,5.873,8.734,10.244C79.329,72.182,78.198,73.122,77.032,74.005z   M15.58,67.015c-0.479-0.581-0.944-1.173-1.394-1.778l28.659-28.659c-0.098,0.632-0.308,1.28-0.633,1.922  c-0.524,0.907-0.867,1.903-1.05,2.932L15.58,67.015z M11.789,61.634L41.1,32.323c0.5,0.356,0.917,0.773,1.218,1.263  c0.103,0.167,0.19,0.34,0.267,0.52c-0.101,0.048-0.199,0.104-0.282,0.188L13.017,63.578C12.591,62.942,12.182,62.294,11.789,61.634z   M9.728,57.695l26.68-26.68c1.026,0.028,1.959,0.16,2.772,0.399L10.775,59.819C10.407,59.123,10.059,58.414,9.728,57.695z   M8.022,53.4l21.693-21.693c0.112-0.112,0.183-0.246,0.23-0.387c1.34-0.135,2.555-0.216,3.589-0.261L8.876,55.719  C8.572,54.956,8.285,54.185,8.022,53.4z M12.872,36.63c1.838-1.265,3.931-2.255,6.109-3.017l-9.709,9.708  C10.28,40.97,11.484,38.731,12.872,36.63z M7.037,50c0.187-0.763,0.4-1.514,0.626-2.258c0.017-0.014,0.037-0.019,0.053-0.035l15-15  c0.063-0.063,0.1-0.141,0.143-0.214c1.37-0.327,2.725-0.583,4.026-0.783L7.366,51.229C7.254,50.82,7.139,50.414,7.037,50z   M44.496,50.099l-4.194,4.194c-0.13,0.129-0.2,0.288-0.244,0.453c-1.483,0.238-2.913,0.523-4.261,0.88l7.113-7.113  C43.371,49.105,43.903,49.637,44.496,50.099z M57.699,33.586c0.975-1.586,3.059-2.484,5.879-2.569l-6.25,6.25  C56.947,35.911,57.067,34.616,57.699,33.586z M69.346,31.249l-10.44,10.44c-0.125-0.854-0.377-1.675-0.73-2.441l8.193-8.193  C67.241,31.091,68.239,31.15,69.346,31.249z M58.864,44.559l12.852-12.852c0.054-0.054,0.082-0.12,0.121-0.182  c0.902,0.118,1.836,0.261,2.797,0.436L52.542,54.053C51.71,54.024,50.874,54,50.009,54c-0.204,0-0.396,0.011-0.599,0.012  l2.157-2.156C55.28,51.203,58.212,48.272,58.864,44.559z M91.484,45.172c-0.062,0.039-0.129,0.067-0.183,0.121L75.435,61.16  c-0.576-0.479-1.18-0.934-1.809-1.363l16.926-16.926C90.886,43.625,91.193,44.394,91.484,45.172z M89.302,41.293L71.884,58.711  c-0.672-0.383-1.368-0.744-2.092-1.08L88.53,38.893c0.407,0.71,0.799,1.431,1.166,2.167C89.554,41.108,89.416,41.179,89.302,41.293z   M87.486,37.17c-0.063,0.04-0.13,0.068-0.185,0.123l-19.5,19.5c-0.763-0.291-1.552-0.56-2.367-0.805l20.268-20.268  c0.496,0.285,0.977,0.589,1.443,0.91C87.263,36.808,87.372,36.991,87.486,37.17z M63.302,55.293c-0.03,0.03-0.043,0.07-0.069,0.104  c-0.86-0.205-1.747-0.387-2.66-0.546l21.025-21.025c0.761,0.282,1.509,0.593,2.238,0.934L63.302,55.293z M58.302,54.293  c-0.059,0.059-0.09,0.13-0.131,0.197c-0.956-0.119-1.938-0.217-2.947-0.291l21.492-21.492c0.081-0.081,0.135-0.177,0.182-0.274  c0.861,0.199,1.725,0.42,2.586,0.679L58.302,54.293z M46.507,54.088c-1.181,0.055-2.32,0.146-3.434,0.262l3.181-3.182  c0.765,0.354,1.586,0.6,2.446,0.727L46.507,54.088z M76.922,62.501L92.192,47.23c0.258,0.812,0.496,1.632,0.706,2.466L78.442,64.152  C77.961,63.578,77.455,63.027,76.922,62.501z M59.009,24v-6.11c2.053,0.41,4.057,0.955,6,1.631V24H59.009z M51.009,24v-6.979  c2.034,0.044,4.037,0.218,6,0.519V24H51.009z M43.009,24v-6.46c1.963-0.301,3.966-0.475,6-0.519V24H43.009z M35.009,24v-4.479  c1.942-0.676,3.946-1.222,6-1.631V24H35.009z M25.752,24c2.283-1.454,4.712-2.701,7.257-3.725V24H25.752z M67.009,20.275  c2.545,1.024,4.973,2.271,7.257,3.725h-7.257V20.275z M22.902,25.979C22.939,25.982,22.971,26,23.009,26h54  c0.037,0,0.069-0.018,0.105-0.021c2.628,1.981,5.021,4.253,7.133,6.775c-6.326-2.817-13.784-3.539-17.984-3.704  c-0.139-0.037-0.277-0.041-0.418-0.018C65.106,29.008,64.482,29,64.009,29c-3.766,0-6.612,1.257-8.014,3.539  c-1.202,1.958-1.184,4.478,0.077,6.961c0.612,1.059,0.937,2.269,0.937,3.5c0,3.86-3.141,7-7,7c-3.86,0-7-3.14-7-7  c0-1.23,0.323-2.441,0.962-3.548c1.235-2.435,1.254-4.955,0.051-6.913c-0.544-0.886-1.311-1.612-2.259-2.175  c-0.019-0.022-0.026-0.05-0.047-0.071c-0.172-0.171-0.391-0.254-0.614-0.275C39.706,29.356,37.989,29,36.009,29  c-3.114,0-12.533,0.322-20.238,3.753C17.883,30.231,20.275,27.96,22.902,25.979z M16.892,68.531l24.223-24.223  c0.127,0.861,0.373,1.682,0.726,2.446l-9.538,9.539c-0.159,0.159-0.237,0.361-0.267,0.568c-6.57,2.555-11.195,6.84-13.972,12.911  C17.665,69.366,17.273,68.953,16.892,68.531z M81.954,69.772c-0.66-1.443-1.422-2.788-2.292-4.03  c0.017-0.014,0.038-0.02,0.054-0.035l12.266-12.266C89.888,59.689,86.419,65.226,81.954,69.772z"></path></svg>